/* XPM */
static char *result[] = {
/* columns rows colors chars-per-pixel */
"50 50 2 1 ",
"  c #53E53C",
". c None",
/* pixels */
"..................................................",
"..................................................",
"..................................................",
"..................................................",
"..................................................",
"..................................................",
"..................................................",
"..................................................",
"..................................................",
".......................    .......................",
".......................    .......................",
".......................    .......................",
".......................    .......................",
".......................    .......................",
".......................    .......................",
".......................    .......................",
".......................    .......................",
".......................    .......................",
".......................    .......................",
".......................    .......................",
".......................    .......................",
"..................................................",
"..................................................",
".........            ........            .........",
".........            ........            .........",
".........            ........            .........",
".........            ........            .........",
"..................................................",
"..................................................",
".......................    .......................",
".......................    .......................",
".......................    .......................",
".......................    .......................",
".......................    .......................",
".......................    .......................",
".......................    .......................",
".......................    .......................",
".......................    .......................",
".......................    .......................",
".......................    .......................",
".......................    .......................",
"..................................................",
"..................................................",
"..................................................",
"..................................................",
"..................................................",
"..................................................",
"..................................................",
"..................................................",
".................................................."
};
